<svg xmlns="http://www.w3.org/2000/svg" viewBox="0 0 1600 1200" width="460" height="378" style="width:100%;height:100%;transform:translate3d(0,0,0)"><defs><clipPath id="a"><path d="M0 0h1600v1200H0z"/></clipPath></defs><g clip-path="url(#a)"><g style="display:block"><path fill="#60F" d="m1281.302 635.299-228.9 1.2-1.3-258.4h.5c-.2-45.3 26.598-88.3 71.098-106.5 58.5-24 125.302 4 149.302 62.5 7.199 17.6 9.699 35.9 8.1 53.6l1.2 247.6zm-529.7 403.5h210.7V958.4h-164.5c-25.5 0-46.2 20.699-46.2 46.199v34.2z"/><path fill="#070039" d="M956.9 1012.699H753.3v5h203.6v-5zm-203.6 0a2.5 2.5 0 0 0 0 5v-5zm203.6 5a2.5 2.5 0 1 0 0-5v5z"/><path fill="#60F" d="m1045.296 1036.299 140.2-148.8-56.8-53.5-109.5 116.2c-17 18-16.1 46.4 1.9 63.3l24.2 22.8z"/><path fill="#070039" d="M179 1040.499h1217.5v-5H179v5zm1217.5 0a2.5 2.5 0 1 0 0-5v5zm-1217.5-5a2.5 2.5 0 1 0 0 5v-5z"/><g fill="#070039"><path d="M1142.102 705.9h-5v2h5v-2zm-5 0v2h5v-2h-5zm0 2a2.5 2.5 0 1 0 5 0h-5zm5-2a2.5 2.5 0 1 0-5 0h5z"/><path d="M1142.102 705.9h-5v2h5v-2zm-5 0v2h5v-2h-5zm0 2a2.5 2.5 0 1 0 5 0h-5zm5-2a2.5 2.5 0 1 0-5 0h5z"/></g><path fill="#070039" d="M428.398 575.299h-5v26.602h5v-26.602zm491 24.101h-493.5v5h493.5v-5zm-2.5 2.501h5v-26.602h-5v26.602zm-491-24.102h493.5v-5h-493.5v5zm0 24.102h-2.5a2.5 2.5 0 0 0 2.5 2.5v-2.5zm493.5 0v2.5a2.5 2.5 0 0 0 2.5-2.5h-2.5zm0-26.602h2.5a2.5 2.5 0 0 0-2.5-2.5v2.5zm-493.5 0v-2.5a2.5 2.5 0 0 0-2.5 2.5h2.5zm416.776 184.328 188.993 177.811 97.299-103.42-188.994-177.81-97.298 103.419z"/><path fill="#070039" d="M557.301 564.399h-5v10.9h5v-10.9zm243.4 8.4h-245.9v5h245.9v-5zm-2.5 2.5h5v-10.9h-5v10.9zm-243.4-8.4h245.9v-5h-245.9v5zm0 8.4h-2.5a2.5 2.5 0 0 0 2.5 2.5v-2.5zm245.9 0v2.5a2.5 2.5 0 0 0 2.5-2.5h-2.5zm0-10.9h2.5a2.5 2.5 0 0 0-2.5-2.5v2.5zm-245.9 0v-2.5a2.5 2.5 0 0 0-2.5 2.5h2.5z"/><path fill="#070039" d="m553.627 561.784-9.69 4.991 2.289 4.445 9.69-4.992-2.289-4.444zM439.952 346.546l112.597 218.605 4.445-2.29-112.597-218.605-4.445 2.29zm-6.323 6.069 9.69-4.992-2.289-4.444-9.69 4.99 2.289 4.446zm113.675 215.237L434.707 349.247l-4.445 2.29 112.596 218.605 4.446-2.29zm7.467-3.846 1.145 2.222a2.5 2.5 0 0 0 1.078-3.367l-2.223 1.145zM442.174 345.401l2.223-1.145a2.5 2.5 0 0 0-3.367-1.077l1.144 2.222zm-9.691 4.991-1.143-2.223a2.501 2.501 0 0 0-1.078 3.368l2.221-1.145zm112.599 218.605-2.224 1.145a2.5 2.5 0 0 0 3.368 1.078l-1.144-2.223zm680.354 353.053 67.699 117.199 4.33-2.5-67.7-117.2-4.329 2.501zm-67.701-117.2 67.701 117.2 4.329-2.501-67.701-117.2-4.329 2.501zm-63.37 117.2 67.699-117.2-4.329-2.501-67.7 117.2 4.33 2.501zm-67.7 117.199 67.7-117.199-4.33-2.501-67.7 117.2 4.33 2.5zm266.47 0a2.5 2.5 0 0 0 4.33-2.5l-4.33 2.5zm-65.535-118.45-2.164 1.251 2.164-1.251zm-67.7-117.2 2.164-1.25a2.497 2.497 0 0 0-4.329 0l2.165 1.25zm-137.565 233.15a2.5 2.5 0 0 0 4.33 2.5l-4.33-2.5zm204.965-731.95c.5 9.6-1.5 18.7-5.3 26.9l-91.099 225.7-106.401-42.9 92.3-228.7h.101c8.199-20 27.399-34.5 50.399-35.6 31.7-1.6 58.5 22.9 60 54.6z"/><path fill="#E2D2FF" d="M962.299 707.799v250.5h-142v-250.5c-1.101-37.899 28.1-70.2 66.2-72.8 39.1-2.599 73 27 75.6 66.1.2 2.301.3 4.5.2 6.7z"/><path fill="#E2D2FF" d="M1139.6 707.799v-2 2zm66.3-72.7c1.601-.1 3.2-.199 4.801-.199H891.3v142.098h319.3c1.601 0 3.2-.098 4.8-.199 36.9-2.5 65.301-32.7 66.2-69v-72.7h-75.7z"/><path fill="#070039" d="M451.602 1038h5V601.9h-5V1038zm0 0a2.5 2.5 0 0 0 5 0h-5zm5-436.1a2.5 2.5 0 1 0-5 0h5zM888.801 1038h5V601.9h-5V1038zm0 0a2.5 2.5 0 0 0 5 0h-5zm5-436.1a2.5 2.5 0 1 0-5 0h5z"/><path fill="#FFF" d="m1418.301 450.899-21 30.6a327.08 327.08 0 0 0-57.7 185.5v108c0 15.8-12.8 28.5-28.5 28.5h-312c-7.3 0-13.3-6-13.3-13.3 0-7.3 6-13.3 13.3-13.3h297.4c9.1 0 16.5-7.4 16.5-16.5v-101.6c0-66.3 20.1-131 57.7-185.5l25.7-37.4c4.2-6.1 12.5-7.6 18.5-3.4 6 4.1 7.6 12.4 3.4 18.4z"/><path fill="#070039" d="M1413.49 434.563c4.871 3.328 6.152 10.061 2.763 14.902l4.096 2.868c5.012-7.159 3.093-17.026-4.037-21.898l-2.822 4.128zm-15.03 2.754c3.419-4.965 10.153-6.168 15.007-2.77l2.867-4.096c-7.145-5.002-17.012-3.204-21.992 4.031l4.118 2.835zm-25.699 37.398 25.7-37.4-4.121-2.832-25.699 37.4 4.12 2.832zm-57.26 184.084c0-65.795 19.946-129.999 57.258-184.08l-4.116-2.84c-37.889 54.919-58.142 120.115-58.142 186.92h5zm0 0h-5V760.4h5V658.799zm-19 120.6c10.481 0 19-8.519 19-19h-5c0 7.719-6.281 14-14 14v5zm-297.4 0h297.4v-5h-297.4v5zm-10.8 10.8c0-5.92 4.881-10.8 10.8-10.8v-5c-8.681 0-15.8 7.12-15.8 15.8h5zm10.8 10.8c-5.919 0-10.8-4.881-10.8-10.8h-5c0 8.681 7.119 15.8 15.8 15.8v-5zm312 0h-312v5h312v-5zm26-26c0 14.414-11.675 26-26 26v5c17.075 0 31-13.813 31-31h-5zm0 0h5v-108h-5v108zm58.141-294.918a329.585 329.585 0 0 0-58.141 186.918h5a324.58 324.58 0 0 1 57.259-184.082l-4.118-2.836zm20.997-30.597-21 30.601 4.124 2.829 21-30.6-4.124-2.83zm-1.338-16.985-1.434 2.048.023.016 1.411-2.064zm-18.5 3.4-2.059-1.417-.002.001 2.061 1.416zm-25.7 37.4 2.058 1.42.002-.004-2.06-1.416zm26.6 8.2 2.059 1.418.003-.003-2.062-1.415zm21-30.6-2.048-1.434-.014.019 2.062 1.415zm-598 507.5h142l-142-37.601v37.601zm143.368-183.492-47.8-31.299-2.739 4.183 47.801 31.3 2.738-4.184zm-47.8-31.299a2.501 2.501 0 0 0-2.739 4.183l2.739-4.183zm45.062 35.483a2.5 2.5 0 1 0 2.738-4.184l-2.738 4.184zM239.94 1036.599c-6.024 0-10.041-6.093-7.821-11.757 4.65-11.97 16.171-20.412 29.593-20.412 13.423 0 24.943 8.442 29.594 20.412 2.219 5.664-1.903 11.757-7.822 11.757H239.94z"/><path fill="#070039" d="m289.913 990.239-19.944 17.329-4.987-26.046-2.758-14.671c-.955-4.997 3.819-9.249 8.699-7.548l14.11 4.89 24.929 8.718-20.049 17.328zm34.173 46.36c0-73.253 59.346-132.6 132.6-132.6 73.254 0 132.6 59.347 132.6 132.6h-265.2z"/><path fill="#60F" d="M271.572 1036.599c-6.913 0-12.124-6.272-10.848-13.078 6.062-31.366 33.712-55.183 66.892-55.183 33.18 0 60.83 23.71 66.892 55.183 1.276 6.806-3.935 13.078-10.848 13.078H271.572z"/><path fill="#60F" d="m367.676 990.239 19.944 17.329 4.986-26.046 2.758-14.671c.955-4.997-3.819-9.249-8.699-7.548l-14.11 4.89-24.929 8.718 20.05 17.328z"/><path fill="#070039" d="m280.945 1013.617-5.723-9.416-4.273 2.596 5.723 9.417 4.273-2.597zm1.819-9.29-6.046 9.217 4.181 2.743 6.046-9.219-4.181-2.741zm-7.542-.126a2.5 2.5 0 0 0-4.273 2.596l4.273-2.596zm3.586 10.714-2.136 1.299a2.499 2.499 0 0 0 4.227.073l-2.091-1.372zm8.137-7.847a2.5 2.5 0 1 0-4.181-2.741l4.181 2.741zm36.459 8.185-5.776-10.2-4.351 2.463 5.775 10.201 4.352-2.464zm1.674-10.041-5.993 9.986 4.286 2.573 5.995-9.986-4.288-2.573zm-7.45-.159a2.5 2.5 0 0 0-4.351 2.463l4.351-2.463zm3.6 11.431-2.176 1.233a2.502 2.502 0 0 0 4.319.054l-2.143-1.287zm8.138-8.699a2.5 2.5 0 0 0-4.288-2.573l4.288 2.573zm-26.637 21.329-4.125 6.483c-.434.721-1.519.618-1.845 0l-3.908-6.585c-.434-.72.108-1.543.977-1.543l8.031.103c.869 0 1.304.822.87 1.542zm33.719 7.485c-6.024 0-10.041-6.093-7.821-11.757 4.65-11.97 16.171-20.412 29.593-20.412 13.423 0 24.943 8.442 29.594 20.412 2.219 5.664-1.903 11.757-7.822 11.757h-43.544z"/><path fill="#070039" d="M467.671 1004.43H358.609v32.17h109.062v-32.17z"/><path fill="#60F" d="M444.94 1016.19c12.892-39.549 50.085-68.107 94.13-68.107v-5c-46.264 0-85.339 30.002-98.884 71.556l4.754 1.551zm94.13-68.107a2.5 2.5 0 0 0 0-5v5zm-98.884 66.556a2.5 2.5 0 0 0 4.754 1.551l-4.754-1.551z"/><path fill="#60F" d="M442.562 1012.915c-14.669 0-27.135 9.193-32.145 21.989l4.658 1.823c4.292-10.964 14.965-18.812 27.487-18.812v-5zm-32.145 21.989a2.501 2.501 0 0 0 4.658 1.823l-4.658-1.823zm32.145-16.989a2.5 2.5 0 1 0 0-5v5z"/><path fill="#070039" d="m367.905 989.976 10.759 8.962 2.689-13.392 1.507-7.624c.537-2.575-2.045-4.738-4.734-3.914l-7.639 2.575-13.448 4.534 10.866 8.859zM1281.3 682.4 1052 635l229.3.2"/></g><path fill="#070039" d="M.001 8.9A8.898 8.898 0 0 0 8.899 0 8.899 8.899 0 1 0-8.899 0a8.9 8.9 0 0 0 8.9 8.9z" transform="rotate(-14.609 1167.997 -4287.832)" style="display:block"/><path fill="#070039" d="M0 17.5c9.665 0 17.5-7.835 17.5-17.5S9.665-17.5 0-17.5-17.5-9.665-17.5 0-9.665 17.5 0 17.5z" transform="rotate(-14.609 1291.67 -4318.978)" style="display:block"/><g style="display:block"><path fill="#FFCC52" d="M1130.227 217.175c7.305 10.187 4.925 24.448-5.262 31.754l-28.49 20.343c-10.186 7.306-24.447 4.926-31.753-5.26s-4.926-24.449 5.26-31.754l28.491-20.344c10.283-7.33 24.423-5.022 31.754 5.261z"/><path fill="#070039" d="M1073.533 271.112a5.879 5.879 0 0 1-8.276-1.108l-3.976 3.032a10.878 10.878 0 0 0 15.283 2.052l-3.031-3.976zm1.107-8.276a5.88 5.88 0 0 1-1.107 8.276l3.03 3.976a10.878 10.878 0 0 0 2.053-15.283l-3.976 3.031zm-9.383 7.168a2.498 2.498 0 0 0-3.503-.472 2.498 2.498 0 0 0-.473 3.504l3.976-3.032zm13.36-10.2a2.498 2.498 0 0 0-3.504-.471 2.498 2.498 0 0 0-.473 3.503l3.976-3.031zm3.634-8.629a3.5 3.5 0 1 0-1.765-6.774 3.5 3.5 0 0 0 1.765 6.774z"/></g><g style="display:block"><path fill="#FFCC52" d="m822.781 557.14 14.521-71.831-126.543-6.305-.179-.41-83.607 50.848c11.235 18.52 35.358 24.405 53.883 13.069l33.735-20.544 108.19 35.174z"/><path fill="#070039" d="m643.272 530.338-5.369-8.295-4.197 2.715 5.368 8.296 4.198-2.716zm12.092-10.924-15.561 10.19 2.74 4.185 15.56-10.191-2.74-4.184zm1.707-.495a2.607 2.607 0 0 0-1.767.565c-.043.034-.077.064-.1.083l-.04.035.02-.018.08-.064c.072-.059.194-.15.36-.237a2.364 2.364 0 0 1 1.242-.273l-.264 4.992a2.625 2.625 0 0 0 1.867-.648l.04-.034-.02.017a2.402 2.402 0 0 1-1.037.52 2.37 2.37 0 0 1-.645.055l.264-4.993zm.566-9.32c2.136 3.319 1.224 7.608-2.05 9.714l2.705 4.205c5.642-3.63 7.151-11.03 3.55-16.625l-4.205 2.705zm-19.734 12.444a2.5 2.5 0 1 0-4.197 2.715l4.197-2.715zm3.27 9.653-2.099 1.358a2.501 2.501 0 0 0 3.468.735l-1.369-2.093zm15.561-10.19.132-2.496a2.5 2.5 0 0 0-1.502.404l1.37 2.092zm.205-.09-.132 2.496a2.5 2.5 0 0 0 1.485-.394l-1.353-2.102zm4.903-14.523a2.5 2.5 0 1 0-4.205 2.705l4.205-2.705z"/></g><g style="display:block"><path fill="#FFCC52" d="m777.555 551.765 45.4 5.238 9.958-34.359-94.628-41.554-75.313 39.32c9.984 19.224 33.663 26.694 52.9 16.61l23.64-12.374 38.043 27.119z"/><path fill="#070039" d="m678.22 522.773-4.807-8.633-4.368 2.431 4.807 8.634 4.368-2.432zm12.79-10.099-16.202 9.137 2.455 4.356 16.203-9.137-2.456-4.356zm1.736-.38a2.607 2.607 0 0 0-1.8.446c-.046.03-.082.059-.106.076a2.259 2.259 0 0 0-.02.017 2.257 2.257 0 0 1 .458-.271 2.364 2.364 0 0 1 1.257-.192l-.594 4.964a2.625 2.625 0 0 0 1.905-.523l.042-.031-.02.015a2.402 2.402 0 0 1-1.07.451 2.37 2.37 0 0 1-.647.012l.595-4.964zm1.182-9.263c1.911 3.454.717 7.673-2.69 9.558l2.42 4.375c5.871-3.249 7.868-10.532 4.646-16.354l-4.376 2.42zm-20.515 11.109a2.5 2.5 0 1 0-4.368 2.431l4.368-2.431zm2.623 9.849-2.184 1.216a2.501 2.501 0 0 0 3.411.962l-1.227-2.178zm16.202-9.136.297-2.483a2.494 2.494 0 0 0-1.525.304l1.228 2.179zm.21-.077-.297 2.482a2.5 2.5 0 0 0 1.508-.294l-1.21-2.188zm5.856-14.166a2.5 2.5 0 1 0-4.376 2.42l4.376-2.42z"/><path fill="#070039" d="m717.03 539.237 23.64-12.377-2.318-4.428-23.64 12.374 2.318 4.43zm-56.277-17.676c10.621 20.452 35.816 28.401 56.279 17.676l-2.321-4.43c-18.01 9.44-40.175 2.447-49.52-15.55l-4.438 2.304zm76.374-42.687-75.313 39.319 2.314 4.434 75.313-39.32-2.314-4.433zm44.93 18.75-42.766-18.822-2.014 4.577 42.765 18.821 2.015-4.576zM740.67 526.86a2.498 2.498 0 0 0 1.056-3.373 2.5 2.5 0 0 0-3.374-1.055l2.318 4.428zm-24.799 10.16-1.16-2.214 1.16 2.215zm-52.9-16.61-1.157-2.217a2.5 2.5 0 0 0-1.06 3.368l2.218-1.15zm75.314-39.319 1.006-2.29a2.507 2.507 0 0 0-2.164.073l1.158 2.217zm41.757 21.11a2.5 2.5 0 1 0 2.015-4.577l-2.015 4.576z"/></g><g style="display:block"><path fill="#070039" d="M1134.799 534c1.5 31.7-23 58.5-54.601 60-3.5.2-6.899 0-10.2-.4l-244.599-31.5 11.2-86.8 235.7 4.3c.8-.1 1.6-.1 2.5-.2 31.6-1.5 58.5 22.9 60 54.6z"/><path fill="#60F" d="m1038.9 478.9 34.7 45.2-101.9-46.4 67.2 1.2z"/></g><g style="display:block"><path fill="#E2D2FF" d="M737.314 320.84H555.86c-13.717 0-24.842-11.125-24.842-24.842V210.78c0-13.717 11.125-24.842 24.842-24.842h181.455c13.717 0 24.842 11.125 24.842 24.842v85.111c0 13.825-11.125 24.95-24.842 24.95z"/><path fill="#E2D2FF" d="M617.857 320.84c0 22.898-18.577 41.368-41.367 41.368V320.84h41.367z"/><path fill="#070039" d="m651.787 221.025-28.191 63.508 4.936 2.192 28.191-63.51-4.936-2.19zm-28.191 63.508a2.7 2.7 0 0 0 4.936 2.192l-4.936-2.192zm33.127-61.318a2.7 2.7 0 1 0-4.936-2.19l4.936 2.19zM601.72 247.35l15.336-8.965-2.724-4.663-15.337 8.965 2.725 4.663zm-15.466 8.867 15.446-8.856-2.686-4.685-15.446 8.857 2.686 4.684zm15.446 4.173-15.446-8.857-2.686 4.684 15.446 8.857 2.686-4.684zm15.356 8.975-15.336-8.964-2.725 4.662 15.337 8.965 2.724-4.663zm0-30.98a2.7 2.7 0 1 0-2.724-4.663l2.724 4.663zm-16.7 6.634 1.344 2.342.02-.011-1.363-2.331zm-15.444 8.856-1.344-2.342a2.7 2.7 0 0 0 0 4.684l1.344-2.342zm15.445 8.858 1.363-2.332a.112.112 0 0 0-.02-.011l-1.343 2.343zm13.975 11.295a2.7 2.7 0 0 0 2.724-4.663l-2.724 4.663zm67.092-31.345-15.445-8.966-2.711 4.672 15.445 8.964 2.71-4.67zm15.332 8.854-15.338-8.857-2.7 4.676 15.338 8.857 2.7-4.676zm-15.338 13.533 15.338-8.857-2.7-4.676-15.338 8.856 2.7 4.677zm-15.44 8.962 15.446-8.965-2.711-4.67-15.445 8.963 2.71 4.672zm0-40.315a2.701 2.701 0 0 0-2.71 4.672l2.71-4.672zm14.09 11.3-1.355 2.336.005.003 1.35-2.338zm15.338 8.858 1.35 2.338a2.7 2.7 0 0 0 0-4.676l-1.35 2.338zm-15.338 8.856-1.35-2.338-.005.003 1.355 2.335zm-16.8 6.629a2.701 2.701 0 0 0 2.71 4.672l-2.71-4.672z"/></g><g style="display:block"><path fill="#60F" d="M593 1036.5c-.102-.006-79.452-.005-79.481-.1"/><path stroke-linecap="round" stroke="#60F" stroke-width="41.2" d="M593 1036.5c-.102-.006-79.452-.005-79.481-.1" fill="none"/></g></g></svg>